<?xml version="1.0" standalone="no"?>
<!DOCTYPE svg PUBLIC "-//W3C//DTD SVG 20010904//EN"
 "http://www.w3.org/TR/2001/REC-SVG-20010904/DTD/svg10.dtd">
<svg version="1.0" xmlns="http://www.w3.org/2000/svg"
 width="504.000000pt" height="504.000000pt" viewBox="0 0 504.000000 504.000000"
 preserveAspectRatio="xMidYMid meet">
<metadata>
Created by potrace 1.14, written by Peter Selinger 2001-2017
</metadata>
<g transform="translate(0.000000,504.000000) scale(0.100000,-0.100000)"
fill="#000000" stroke="none">
<path d="M2098 4808 l-3 -42 -80 -1 -80 0 -3 -42 -3 -43 -85 0 -84 0 2 -42 3
-43 -45 0 -45 0 -3 43 -3 42 -79 0 -79 0 -3 -42 c-3 -43 -3 -43 -45 -46 -43
-3 -43 -3 -43 -43 0 -39 0 -39 -40 -39 l-40 0 0 -45 0 -45 -40 0 -40 0 0 -125
0 -125 -85 0 -85 0 0 -40 0 -40 -85 0 -85 0 0 -84 0 -85 -42 -3 c-42 -3 -43
-4 -46 -40 l-3 -38 45 0 46 0 0 -175 0 -175 -85 0 -85 0 0 -40 0 -40 -45 0
-45 0 0 -80 0 -80 45 0 45 0 0 -45 0 -45 40 0 40 0 0 -85 0 -85 -40 0 -40 0 0
-45 0 -45 -84 0 -85 0 -3 -42 c-3 -41 -3 -42 -43 -42 -39 -1 -40 -2 -43 -38
l-3 -38 45 0 46 0 0 -45 0 -45 125 0 125 0 0 -45 0 -45 -40 0 -40 0 0 -40 0
-40 -45 0 -45 0 0 -45 0 -45 -40 0 -40 0 0 -125 0 -125 40 0 40 0 0 -40 0 -40
45 0 45 0 0 -40 0 -40 85 0 85 0 0 -85 0 -85 40 0 40 0 0 -45 0 -45 85 0 85 0
0 -45 0 -45 -40 0 -40 0 0 -80 0 -79 83 -3 82 -3 3 -43 3 -43 77 3 77 3 3 128
3 127 44 0 45 0 0 -85 0 -85 165 0 165 0 0 40 0 40 85 0 85 0 0 40 0 40 -85 0
-85 0 0 130 0 130 -40 0 -40 0 0 40 0 40 40 0 40 0 0 255 0 255 45 0 45 0 0
46 0 45 43 -3 c42 -3 42 -3 45 -45 l3 -43 80 0 79 0 0 45 0 45 45 0 45 0 0
-85 0 -85 -170 0 -170 0 0 -216 0 -216 43 4 42 3 3 -43 3 -42 79 0 79 0 3 42
c3 41 3 42 43 42 l40 1 3 168 2 167 80 0 80 0 0 170 0 170 45 0 45 0 0 -170 0
-170 -40 0 -40 0 0 -46 0 -47 61 7 c34 3 73 6 86 6 22 0 24 4 21 38 l-3 37 43
3 42 3 0 85 0 84 85 0 85 0 0 45 0 45 45 0 45 0 0 -170 0 -170 80 0 80 0 2 88
c1 48 2 161 2 252 l1 165 43 3 c42 3 42 3 42 43 l0 40 43 -3 42 -3 -3 -110
c-2 -60 1 -116 6 -122 5 -9 57 -13 172 -15 l165 -3 3 -42 c3 -42 4 -43 40 -43
l37 0 0 -340 0 -340 -37 0 -37 0 -3 -83 -3 -82 -82 -3 -83 -3 0 -39 0 -40 85
0 85 0 0 -40 0 -40 250 0 250 0 -2 162 -3 163 -42 3 -43 3 0 45 0 44 85 0 85
0 0 45 0 45 45 0 46 0 -3 78 -3 77 -42 3 -43 3 0 45 0 44 45 0 45 0 0 45 0 45
40 0 40 0 0 40 0 40 45 0 45 0 0 165 0 165 -45 0 -45 0 0 45 0 45 -40 0 -40 0
0 40 0 40 -45 0 -45 0 0 130 0 130 45 0 45 0 0 79 0 80 -42 3 -43 3 -3 128 -3
127 -84 0 -85 0 0 40 0 40 -40 0 -40 0 0 90 0 90 40 0 40 0 0 210 0 210 -40 0
-40 0 0 40 0 40 -165 0 -165 0 0 -40 0 -40 -45 0 -45 0 0 -45 0 -46 -87 3 -88
3 -3 83 -3 82 -39 0 c-40 0 -40 0 -40 40 l0 39 -82 3 -83 3 -3 43 -3 42 -85 0
-84 0 0 40 0 40 -40 0 -40 0 0 45 0 45 -169 0 -170 0 -3 43 -3 42 -124 2 -125
1 0 39 -1 38 -82 3 -82 3 -3 -43z"/>
<path d="M3200 2184 l0 -216 43 4 42 3 0 -40 0 -40 83 -3 82 -3 0 40 c0 40 0
40 43 43 l42 3 0 210 0 210 -167 3 -168 2 0 -216z"/>
<path d="M2520 1590 l0 -40 125 0 125 0 0 40 0 40 -125 0 -125 0 0 -40z"/>
<path d="M2020 1510 l0 -40 85 0 85 0 0 -130 0 -130 -130 0 -130 0 0 -45 0
-45 -40 0 -40 0 0 -85 0 -85 -46 0 c-45 0 -46 -1 -40 -26 12 -46 1 -60 -44
-56 l-40 4 0 -131 0 -131 -45 0 -45 0 -2 -168 -3 -167 -38 0 -37 0 0 -117 0
-118 885 0 886 0 -3 117 -3 117 -40 0 -40 1 -3 168 -2 167 -40 0 -40 0 0 215
0 215 -40 0 -40 0 0 40 0 40 -45 0 -45 0 0 45 0 45 -125 0 -125 0 0 85 0 85
295 0 295 0 0 45 0 45 85 0 85 0 0 40 0 40 -125 0 -125 0 0 -45 0 -45 -340 0
-340 0 0 -40 0 -40 45 0 45 0 0 -125 0 -124 83 -3 82 -3 3 -42 3 -43 -300 0
-301 0 0 45 0 45 45 0 45 0 0 210 0 210 -125 0 -125 0 0 -40z"/>
</g>
</svg>
