<?xml version="1.0" standalone="no"?>
<!DOCTYPE svg PUBLIC "-//W3C//DTD SVG 20010904//EN"
 "http://www.w3.org/TR/2001/REC-SVG-20010904/DTD/svg10.dtd">
<svg version="1.0" xmlns="http://www.w3.org/2000/svg"
 width="504.000000pt" height="504.000000pt" viewBox="0 0 504.000000 504.000000"
 preserveAspectRatio="xMidYMid meet">
<metadata>
Created by potrace 1.14, written by Peter Selinger 2001-2017
</metadata>
<g transform="translate(0.000000,504.000000) scale(0.100000,-0.100000)"
fill="#000000" stroke="none">
<path d="M2099 4823 c-1 -16 -1 -34 0 -40 1 -10 -21 -13 -84 -13 -81 0 -85 -1
-86 -22 -3 -67 3 -63 -84 -64 -62 0 -80 -3 -81 -15 -1 -7 -2 -26 -3 -40 -1
-23 -6 -27 -36 -31 -45 -5 -51 0 -49 39 0 17 -2 35 -5 40 -8 12 -154 10 -163
-2 -4 -5 -5 -22 -3 -37 6 -32 -7 -42 -52 -40 -33 1 -33 1 -33 -43 l0 -45 -40
3 -40 3 0 -42 0 -43 -42 -3 -43 -3 0 -123 c0 -67 -2 -123 -5 -123 -3 -1 -41
-2 -85 -3 -56 -1 -80 -5 -81 -13 -1 -7 -2 -26 -3 -43 l-1 -29 -82 -3 -82 -3
-2 -75 c-1 -41 -2 -79 -3 -83 -1 -4 -19 -6 -41 -4 l-40 4 0 -44 c0 -45 2 -46
53 -45 15 0 28 -2 28 -6 1 -4 2 -80 3 -169 2 -158 1 -163 -19 -164 -11 -1 -49
-2 -85 -3 -58 -1 -65 -3 -66 -21 -3 -65 -3 -65 -32 -64 -52 3 -52 4 -52 -86
l0 -84 35 3 c41 3 53 -8 50 -47 -2 -32 6 -40 49 -41 l31 -1 3 -82 3 -83 -45 0
-44 0 3 -39 c2 -24 -1 -41 -8 -44 -7 -2 -46 -3 -88 -2 l-77 1 2 -41 1 -40 -43
-3 -42 -3 0 -44 0 -44 39 3 c43 3 54 -11 45 -60 l-4 -24 130 0 131 0 -3 -42
c-3 -42 -3 -42 -43 -43 -38 0 -39 -1 -41 -35 -1 -19 -2 -39 -3 -43 -1 -5 -13
-8 -29 -7 -48 3 -51 1 -54 -42 -3 -42 -3 -42 -43 -43 l-40 0 -1 -128 0 -127
42 0 43 0 3 -42 c3 -41 3 -42 43 -42 l40 -1 -1 -42 0 -43 83 3 c50 2 84 -1 86
-8 2 -5 3 -43 2 -83 -1 -67 1 -73 21 -78 12 -3 30 -4 40 -2 16 3 19 -3 19 -39
0 -24 4 -44 10 -44 5 -1 44 -2 85 -3 l75 -1 3 -37 c2 -26 -1 -38 -10 -40 -22
-2 -52 -5 -65 -7 -9 -1 -12 -24 -10 -83 l2 -83 76 -1 c42 0 80 -3 85 -7 5 -3
9 -22 9 -41 -1 -28 2 -36 17 -37 23 -1 80 -1 118 0 l29 1 3 127 3 127 40 0 40
0 -1 -81 c0 -66 3 -82 15 -86 14 -3 306 -2 322 2 3 0 4 19 3 41 l-2 40 84 0
c60 0 84 -4 85 -12 1 -7 2 -26 3 -43 l1 -30 80 0 c44 0 82 -3 85 -7 5 -6 5
-214 1 -240 0 -5 -57 -8 -126 -8 l-125 0 0 -40 c0 -25 -5 -40 -12 -41 -7 -1
-26 -2 -43 -3 l-30 -1 -2 -75 c0 -41 -2 -80 -2 -86 -1 -6 -18 -10 -41 -9 -32
2 -40 -2 -39 -14 6 -61 1 -70 -43 -73 l-43 -3 0 -115 c0 -63 -3 -120 -7 -126
-4 -6 -23 -9 -42 -8 l-36 3 0 -169 c0 -169 0 -170 -22 -171 -68 -3 -63 6 -63
-109 -1 -58 1 -111 3 -117 6 -19 1768 -19 1774 0 2 6 3 59 2 117 l-1 105 -37
2 c-21 0 -40 4 -44 7 -3 4 -6 80 -6 169 l-1 162 -30 1 c-16 1 -35 2 -40 3 -6
1 -10 78 -10 211 l0 210 -42 0 -43 0 0 44 c0 42 -2 45 -27 44 -58 -1 -60 0
-59 40 l1 37 -126 3 -127 3 2 82 1 82 288 1 c159 1 291 5 295 9 4 3 7 23 7 43
l0 37 83 -1 c90 -2 85 -6 85 69 0 15 10 17 83 17 60 0 84 -4 85 -12 1 -7 2
-26 3 -43 l1 -30 250 0 250 0 3 170 2 170 -40 -1 c-22 -1 -40 1 -41 5 -13 76
-5 82 99 78 66 -2 66 -3 65 56 -1 28 5 30 70 30 15 0 17 10 17 83 l0 83 -42 3
c-43 3 -43 3 -43 43 0 40 0 40 40 40 40 0 40 0 43 42 3 42 3 42 45 45 42 3 42
3 42 43 0 40 0 40 40 40 l40 0 0 170 0 170 -37 -1 c-22 -1 -39 3 -39 10 -1 6
-2 25 -3 41 -1 28 -4 30 -43 33 -42 3 -42 3 -45 45 -3 39 -5 42 -33 43 -16 1
-35 2 -40 3 -7 1 -11 46 -10 127 l0 125 30 -1 c56 -3 55 -5 55 86 0 75 -2 85
-17 83 -10 -1 -29 -1 -43 0 l-26 1 1 108 c1 159 8 148 -86 144 -85 -4 -82 -6
-81 56 0 28 -2 32 -23 28 -57 -10 -63 -1 -62 87 l2 82 30 1 c17 0 36 3 41 7 7
4 10 79 10 209 l-1 203 -43 3 c-41 3 -42 4 -40 35 1 18 -1 37 -4 43 -4 6 -69
10 -170 9 l-163 0 1 -43 1 -42 -44 0 c-45 0 -47 -2 -43 -52 1 -16 -2 -28 -7
-29 -4 -1 -43 -2 -85 -3 l-78 -2 -1 55 c-1 31 0 68 1 82 1 29 -16 40 -53 33
-27 -4 -39 12 -32 45 4 21 -16 43 -37 40 -7 -1 -40 -1 -74 0 l-61 1 2 40 c1
30 -2 40 -14 41 -9 1 -47 2 -86 3 l-70 1 0 40 c0 42 4 40 -67 44 -14 1 -18 10
-18 44 l0 42 -168 0 -167 0 -2 25 c0 14 -1 33 -2 43 -1 15 -14 17 -126 17
l-125 0 0 40 0 40 -85 0 -85 0 -1 -27z"/>
</g>
</svg>
